<?xml version="1.0" standalone="no"?>
<!DOCTYPE svg PUBLIC "-//W3C//DTD SVG 20010904//EN"
 "http://www.w3.org/TR/2001/REC-SVG-20010904/DTD/svg10.dtd">
<svg version="1.0" xmlns="http://www.w3.org/2000/svg"
 width="256.000000pt" height="256.000000pt" viewBox="0 0 256.000000 256.000000"
 preserveAspectRatio="xMidYMid meet">
<metadata>
Created by potrace 1.11, written by Peter Selinger 2001-2013
</metadata>
<g transform="translate(0.000000,256.000000) scale(0.100000,-0.100000)"
fill="#000000" stroke="none">
<path d="M95 2518 c-46 -25 -74 -62 -86 -112 -7 -33 -10 -145 -7 -321 3 -259
4 -271 25 -306 21 -32 54 -56 108 -75 18 -6 16 -8 -10 -14 -44 -10 -73 -31
-98 -70 -21 -34 -22 -43 -22 -340 0 -297 1 -306 22 -340 25 -39 54 -60 98 -70
26 -6 28 -8 10 -14 -54 -19 -87 -43 -108 -75 -21 -35 -22 -47 -25 -306 -3
-176 0 -288 7 -321 12 -51 41 -89 88 -113 31 -16 2335 -16 2366 0 47 24 76 62
88 113 7 33 10 145 7 321 -3 259 -4 271 -25 306 -21 32 -54 56 -108 75 -18 6
-16 8 10 14 44 10 73 31 98 70 21 34 22 43 22 340 0 297 -1 306 -22 340 -25
39 -54 60 -98 70 -26 6 -28 8 -10 14 54 19 87 43 108 75 21 35 22 47 25 306 3
176 0 288 -7 321 -12 51 -41 89 -88 113 -31 16 -2339 15 -2368 -1z m403 -268
c52 -32 74 -75 70 -140 -6 -90 -62 -144 -148 -144 -89 0 -154 66 -154 156 0
113 134 187 232 128z m990 -32 c27 -27 7 -78 -29 -78 -21 0 -49 26 -49 45 0
35 53 58 78 33z m176 -4 c9 -8 16 -22 16 -29 0 -7 -7 -21 -16 -29 -30 -30 -74
-13 -74 29 0 42 44 59 74 29z m174 4 c16 -16 15 -53 -3 -68 -19 -16 -45 -10
-61 15 -26 39 31 86 64 53z m180 0 c27 -27 7 -78 -29 -78 -21 0 -49 26 -49 45
0 35 53 58 78 33z m176 -4 c9 -8 16 -22 16 -29 0 -7 -7 -21 -16 -29 -30 -30
-74 -13 -74 29 0 42 44 59 74 29z m-620 -130 c30 -30 13 -74 -29 -74 -42 0
-59 44 -29 74 8 9 22 16 29 16 7 0 21 -7 29 -16z m181 -8 c21 -31 5 -66 -28
-66 -62 0 -62 88 0 90 7 0 20 -11 28 -24z m166 14 c21 -12 25 -50 7 -68 -39
-39 -100 17 -63 58 21 23 29 24 56 10z m183 -6 c30 -30 13 -74 -29 -74 -42 0
-59 44 -29 74 8 9 22 16 29 16 7 0 21 -7 29 -16z m181 -8 c21 -31 5 -66 -28
-66 -62 0 -62 88 0 90 7 0 20 -11 28 -24z m-1787 -666 c130 -79 74 -280 -78
-280 -152 0 -208 201 -78 280 43 26 113 26 156 0z m986 -36 c9 -8 16 -22 16
-29 0 -15 -27 -45 -41 -45 -19 0 -49 40 -42 57 13 35 42 42 67 17z m180 -5
c17 -24 12 -45 -14 -59 -26 -14 -49 -2 -57 28 -4 18 -1 29 12 39 26 18 42 16
59 -8z m174 9 c34 -34 -6 -90 -48 -68 -35 19 -20 80 20 80 9 0 21 -5 28 -12z
m176 -4 c9 -8 16 -22 16 -29 0 -15 -27 -45 -41 -45 -5 0 -18 9 -29 20 -11 11
-20 24 -20 29 0 14 30 41 45 41 7 0 21 -7 29 -16z m180 -5 c17 -24 12 -45 -14
-59 -25 -14 -49 -2 -56 26 -12 48 41 73 70 33z m-609 -139 c9 -15 -4 -47 -22
-54 -46 -18 -81 35 -43 66 22 18 50 13 65 -12z m159 17 c22 -16 18 -55 -6 -71
-40 -24 -80 44 -42 71 10 7 21 13 24 13 3 0 14 -6 24 -13z m180 0 c22 -16 18
-55 -6 -71 -40 -24 -80 44 -42 71 10 7 21 13 24 13 3 0 14 -6 24 -13z m176 -5
c38 -31 7 -82 -41 -67 -27 9 -34 43 -13 66 21 23 26 24 54 1z m174 5 c22 -16
18 -55 -6 -71 -40 -24 -80 44 -42 71 10 7 21 13 24 13 3 0 14 -6 24 -13z
m-1774 -674 c43 -25 64 -63 68 -123 4 -65 -18 -108 -70 -140 -37 -22 -107 -27
-141 -9 -101 52 -123 172 -46 248 51 51 128 61 189 24z m988 -35 c21 -21 14
-57 -13 -70 -22 -10 -29 -9 -47 10 -19 18 -20 25 -10 47 13 27 49 34 70 13z
m184 -13 c10 -22 9 -29 -10 -47 -18 -19 -25 -20 -47 -10 -16 8 -25 20 -25 35
0 50 62 66 82 22z m166 13 c34 -34 -6 -90 -48 -68 -20 11 -24 22 -20 50 4 29
46 40 68 18z m182 -3 c17 -20 5 -62 -21 -70 -24 -8 -59 19 -59 45 0 37 55 55
80 25z m182 -10 c10 -22 9 -29 -10 -47 -18 -19 -25 -20 -47 -10 -16 8 -25 20
-25 35 0 50 62 66 82 22z m-622 -120 c31 -38 -27 -96 -65 -65 -18 15 -20 51
-3 68 17 17 53 15 68 -3z m176 -6 c20 -22 13 -43 -19 -63 -36 -23 -75 36 -47
70 17 20 44 17 66 -7z m172 9 c26 -26 8 -78 -27 -78 -18 0 -51 29 -51 46 0 34
54 56 78 32z m176 -4 c9 -8 16 -22 16 -29 0 -7 -7 -21 -16 -29 -30 -30 -74
-13 -74 29 0 42 44 59 74 29z m180 -6 c13 -19 14 -25 2 -43 -26 -39 -76 -26
-76 19 0 46 48 62 74 24z"/>
</g>
</svg>
